<mxfile host="app.diagrams.net" agent="Mozilla/5.0 (Windows NT 10.0; Win64; x64) AppleWebKit/537.36 (KHTML, like Gecko) Chrome/133.0.0.0 Safari/537.36 Edg/133.0.0.0" version="26.0.16">
  <diagram name="第 1 页" id="e7HlVfwk5nqW00gzPEb4">
    <mxGraphModel dx="922" dy="1302" grid="0" gridSize="10" guides="1" tooltips="1" connect="1" arrows="1" fold="1" page="1" pageScale="1" pageWidth="827" pageHeight="1169" math="0" shadow="0">
      <root>
        <mxCell id="0" />
        <mxCell id="1" parent="0" />
        <mxCell id="bVhOLgPDnl9ng7HYhSVx-1" value="&lt;font face=&quot;Georgia&quot; style=&quot;font-size: 19px;&quot;&gt;Conv&lt;/font&gt;" style="rounded=1;whiteSpace=wrap;html=1;glass=1;fillColor=#f5f5f5;strokeColor=#666666;fontColor=#333333;" vertex="1" parent="1">
          <mxGeometry x="61" y="45" width="120" height="60" as="geometry" />
        </mxCell>
        <mxCell id="bVhOLgPDnl9ng7HYhSVx-7" value="" style="rounded=1;whiteSpace=wrap;html=1;glass=1;fillColor=#f5f5f5;strokeColor=#666666;fontColor=#333333;" vertex="1" parent="1">
          <mxGeometry x="61" y="688" width="120" height="60" as="geometry" />
        </mxCell>
        <mxCell id="bVhOLgPDnl9ng7HYhSVx-8" value="" style="rounded=1;whiteSpace=wrap;html=1;glass=1;fillColor=#f5f5f5;strokeColor=#666666;fontColor=#333333;" vertex="1" parent="1">
          <mxGeometry x="61" y="793" width="120" height="60" as="geometry" />
        </mxCell>
        <mxCell id="bVhOLgPDnl9ng7HYhSVx-9" value="" style="rounded=1;whiteSpace=wrap;html=1;glass=1;fillColor=#f5f5f5;strokeColor=#666666;fontColor=#333333;" vertex="1" parent="1">
          <mxGeometry x="61" y="882" width="120" height="60" as="geometry" />
        </mxCell>
        <mxCell id="bVhOLgPDnl9ng7HYhSVx-10" value="" style="rounded=1;whiteSpace=wrap;html=1;glass=1;fillColor=#f5f5f5;strokeColor=#666666;fontColor=#333333;" vertex="1" parent="1">
          <mxGeometry x="61" y="984" width="120" height="60" as="geometry" />
        </mxCell>
      </root>
    </mxGraphModel>
  </diagram>
</mxfile>
